<svg width="21" height="21" viewBox="0 0 21 21" fill="none" xmlns="http://www.w3.org/2000/svg">
<path d="M9.311 0C11.1525 0 12.9527 0.546077 14.4839 1.56918C16.0151 2.59229 17.2085 4.04647 17.9132 5.74783C18.618 7.4492 18.8024 9.32133 18.4431 11.1275C18.0838 12.9336 17.197 14.5927 15.8949 15.8949C14.5927 17.197 12.9336 18.0838 11.1275 18.4431C9.32133 18.8024 7.4492 18.618 5.74784 17.9132C4.04648 17.2085 2.5923 16.0151 1.56919 14.4839C0.546085 12.9527 0 11.1525 0 9.31099C0.00291117 6.84245 0.984826 4.47587 2.73035 2.73035C4.47587 0.984826 6.84247 0.00291117 9.311 0ZM9.311 17.122C10.8559 17.122 12.366 16.6639 13.6506 15.8056C14.9351 14.9473 15.9362 13.7274 16.5274 12.3001C17.1186 10.8729 17.2733 9.30233 16.9719 7.78714C16.6705 6.27195 15.9266 4.88017 14.8342 3.78778C13.7418 2.69539 12.35 1.95147 10.8349 1.65009C9.31967 1.3487 7.74914 1.50338 6.32186 2.09457C4.89459 2.68577 3.67467 3.68692 2.81639 4.97144C1.95811 6.25595 1.5 7.76612 1.5 9.31099C1.50238 11.3819 2.32609 13.3672 3.79042 14.8316C5.25475 16.2959 7.24013 17.1196 9.311 17.122Z" fill="white"/>
<path d="M17.936 15.774C18.3634 15.7742 18.7812 15.9011 19.1364 16.1387C19.4917 16.3764 19.7685 16.714 19.9319 17.1089C20.0953 17.5039 20.1379 17.9384 20.0543 18.3576C19.9707 18.7767 19.7647 19.1617 19.4624 19.4638C19.16 19.7658 18.7749 19.9715 18.3556 20.0547C17.9364 20.1379 17.5019 20.0949 17.1071 19.9311C16.7123 19.7674 16.3749 19.4902 16.1377 19.1348C15.9004 18.7793 15.7738 18.3614 15.774 17.934C15.7745 17.3609 16.0026 16.8115 16.408 16.4065C16.8134 16.0015 17.363 15.774 17.936 15.774ZM17.936 18.596C18.0667 18.5958 18.1943 18.5569 18.3029 18.4842C18.4114 18.4115 18.496 18.3082 18.5459 18.1875C18.5958 18.0667 18.6088 17.9339 18.5833 17.8058C18.5577 17.6777 18.4948 17.56 18.4024 17.4676C18.31 17.3752 18.1923 17.3123 18.0642 17.2867C17.9361 17.2612 17.8033 17.2742 17.6825 17.3241C17.5618 17.374 17.4585 17.4586 17.3858 17.5671C17.3131 17.6757 17.2742 17.8033 17.274 17.934C17.274 18.1096 17.3438 18.278 17.4679 18.4021C17.5921 18.5262 17.7604 18.596 17.936 18.596Z" fill="white"/>
</svg>
